<svg preserveAspectRatio="none" width="100%" height="100%" overflow="visible" style="display: block;" viewBox="0 0 59 40" fill="none" xmlns="http://www.w3.org/2000/svg">
<g id="Frame 1">
<rect width="59" height="40" rx="20" fill="var(--fill-0, #282828)" fill-opacity="0.3"/>
<path id="Subtract" d="M37.121 8C36.4784 8.33625 34.7845 9.68132 33.1514 12.3713C31.1102 15.7339 31.973 21.0303 35.193 21.45C37.4946 21.7499 38.5817 20.0833 38.2472 18.5C38.652 19.1336 39 20.25 39 21.25C39 27.187 34.1696 31.9999 28.211 32C24.9232 32 21.9789 30.5344 20 28.2234C23.1012 27.9402 25.5291 25.3743 25.5291 22.25C25.5291 19.7375 23.959 17.5861 21.7313 16.6924C26.2717 10.008 33.8781 8.1118 37.121 8Z" fill="var(--fill-0, white)"/>
</g>
</svg>
